# xmcd
#
# Track frame offsets:
#  150
#  19182
#  38762
#  59917
#  81090
#  96165
#  115950
#  139175
#  162422
#  182817
#
# Disc length: 3013 seconds
#
# Revision: 0
# Processed by: cddbd v1.5.1PL2 Copyright (c) Steve Scherf et al.
# Submitted via: Collectorz.com_Music_Collector 6.9
#
DISCID=8a0bc30a
DTITLE=Colón Zayas, Edwin - Daniel Colón, Luis - Navidad Con El Taller Campesino
DYEAR=2005
DGENRE=Misica Tipica Navideña - Misica Tipica Puertorriqueña - Navidad
TTITLE0=Felicidades
TTITLE1=Travesia
TTITLE2=Los Reyes No Llegaron
TTITLE3=Paz En Los Pueblos
TTITLE4=El Lechon De Julio
TTITLE5=Lo Mejor De La Navidad
TTITLE6=Dentro De Un Pajar
TTITLE7=Jesús El Niño Divino
TTITLE8=El Radar
TTITLE9=Popurri Navideño
EXTD=
EXTT0=
EXTT1=
EXTT2=
EXTT3=
EXTT4=
EXTT5=
EXTT6=
EXTT7=
EXTT8=
EXTT9=
PLAYORDER=
